<svg xmlns="http://www.w3.org/2000/svg" width="461" height="121" viewBox="0 0 461 121">
	<g transform="translate(-16.365 -39.391)">
		<rect width="461" height="121" transform="translate(16.365 39.391)" fill="rgba(255,255,255,0)" />
		<g transform="translate(2 9)">
			<path d="M157.6,115.2V90.6c0-6.8-3.7-10.7-10-10.7-6,0-9.4,3.9-9.4,10.7v24.6h-8.6V90.6c0-11.5,6.9-18.7,18.1-18.7,11.3,0,18.5,7.3,18.5,18.7v24.6h-8.6Z" fill="#fff" />
			<path d="M214.6,116.4c-16.5,0-22.4-11.2-22.4-21.7,0-15.9,11.3-23,22.4-23a22.5,22.5,0,0,1,15.8,6.5l.3.3-5.5,5.7-.3-.3a15.88,15.88,0,0,0-10.2-4c-8.1,0-13.8,6.1-13.8,14.8,0,6.5,3.6,13.4,13.8,13.4a13.261,13.261,0,0,0,8.9-3.1V98.4H213v-8h19.3v17.5l-.6.8A21.685,21.685,0,0,1,214.6,116.4Z" fill="#fff" />
			<path d="M277,115.2c-11.3,0-18.5-7.3-18.5-18.7V72h8.6V96.6c0,6.8,3.7,10.7,10,10.7,6,0,9.4-3.9,9.4-10.7V72h8.6V96.6C295.1,108.1,288.2,115.2,277,115.2Z" fill="#fff" />
			<path d="M321.1,115.2v-43h33.8v8.5H329.6v9.4h21.2v8.1H329.6v8.5h25.3v8.5Z" fill="#fff" />
			<path d="M397.2,116.1c-9.4,0-15.3-3.4-18.2-10.3l-.2-.4,7.3-3.8.2.5c1.5,3.8,5.7,6.1,11,6.1,2.1,0,8.9-.4,8.9-5.6,0-3.1-2.9-4.9-9-5.5-14.5-1.7-16.4-7.4-16.4-12.8,0-8.4,8.1-12.3,16.2-12.3s13.7,2.9,16.4,8.3l.2.4-6.9,3.6-.2-.4c-1.2-2.1-4.9-4.3-9.2-4.3-4.9,0-7.9,1.9-7.9,4.9s3.4,4,8.6,4.6c8.7,1.1,16.8,3.4,16.8,13.4C414.7,112.5,405.7,116.1,397.2,116.1Z" fill="#fff" />
			<path d="M457,116.3c-9.4,0-15.3-3.4-18.1-10.3l-.2-.4,7.2-3.8.2.5c1.5,3.8,5.7,6.1,11,6.1,2.1,0,8.9-.4,8.9-5.6,0-3-2.9-4.8-9-5.5-14.4-1.7-16.4-7.4-16.4-12.8,0-8.4,8.1-12.3,16.2-12.3,8,0,13.7,2.9,16.4,8.3l.2.4-6.9,3.6-.2-.4c-1.2-2.1-4.9-4.3-9.2-4.3-4.9,0-7.9,1.9-7.9,4.9s3.4,4,8.6,4.6c8.7,1.1,16.8,3.4,16.8,13.4S465.5,116.3,457,116.3Z" fill="#fff" />
			<path d="M94.6,93.6v4.2h0c-.4,6.1-3.8,9.6-9.4,9.6-6,0-9.6-3.5-10-9.6h0V93.6H66.6v4.2h0v.1h0c.5,10.7,7.7,17.5,18.6,17.5,10.8,0,17.6-6.7,18.1-17.5h0V93.6H94.6Z" fill="#fff" />
			<rect width="8.6" height="8.6" transform="translate(66.6 72)" fill="#54c38a" />
			<rect width="8.7" height="8.7" transform="translate(94.4 72)" fill="#fff" />
			<rect width="8.6" height="8.6" transform="translate(51.911 51.16) rotate(90)" fill="#b2c4cd" />
			<rect width="8.6" height="8.6" transform="translate(64.496 62.384) rotate(90)" fill="#809cab" />
			<rect width="8.6" height="8.6" transform="translate(36.095 58.897) rotate(90)" fill="#cceddc" />
			<rect width="8.6" height="8.6" transform="translate(22.965 41.391) rotate(90)" fill="#ccd8dd" />
			<rect width="8.6" height="8.6" transform="translate(40.176 97.868) rotate(90)" fill="#e5ebee" />
			<rect width="8.6" height="8.6" transform="translate(55.338 82.556) rotate(90)" fill="#a9e1c5" />
		</g>
	</g>
</svg>
